<svg xmlns="http://www.w3.org/2000/svg" width="5034" height="1344" viewBox="0 0 5034 1344">
  <defs>
    <style>
      .cls-1 {
        fill: #fff;
        fill-rule: evenodd;
      }
    </style>
  </defs>
  <path id="N" class="cls-1" d="M484,1661c218.505,0,836.4,50.28,1144,439-13.87-144.32,188.57-50.28,404,73,26.79-115.33,240.22-245.08,608-160-209.7-111.2-262.81-163.35-294-246-127.44,88.62-506.63,368.23-959-15-138.6-6.07-813.462-140.91,318-747-235.24,27.01-387.9-88.063-480-171-59.38,169.15-62.79,234.9-217,406,196.12-109.85,311.89-129.97,408-143C1352.34,1178.26,813.162,1601.35,484,1661Zm759.79,0.07c-7.26-40.47-12.03-101.4-82.78-197.49,89.15-59.59,191.62-102.66,354.22-297.14,51.03-12.01,215.08-50.46,330.15-155.43-11.37,32.76-26.4,119.55,9.63,160.92-331.76-13.21-638.08,372.53-103,100.57-8.75,26.87-90.12,80.59-77.96,128.91-209.7,12.04-282.89,25.44-348.45,92.34-82.16,83.86,61.14,204.97,347.49-10.97-54.77,74.25-105.48,75.9-68.35,232.23C1486.67,1698.94,1305.31,1670.9,1243.79,1661.07ZM1643,1768c164.48-29.42,212.94,56.7,303,123-23.15-93.76-128.57-227.94-46-354,143.26,41.03,221.06,139.85,235,260,28.58-76.99,149.37-165.8,259-119-104.21-98.04-214.42-171.79-359-158,88.39-49.58,191.59-106.08,124-219-69.56-116.22-215.96-159.74-232-334C1923.65,1106.01,1945.54,1435.7,1643,1768Zm301-341c20.95-53.8,48.84-176.13,45-206,19.36,21.7,98.59,101.21,85.59,154.87C2067.44,1405.39,2032.36,1427.08,1944,1427Zm721.55-399.21c17.83,41.05-5.27,156.19-87.02,236.08-36.8,32.44-130.29,126.92-45,369.13-153.22-88.27-413.72-236.34-281.05-439.15C2372.07,1011.01,2579.4,1135.26,2665.55,1027.79Zm-98.02,131.04c-58.73,1.8-181.93,34.62-233.3,97.24-40.6,49.52-36.31,117.67,80.27,203.87C2369.71,1362.46,2519.86,1221.92,2567.53,1158.83Zm767.94-131.04c-17.83,41.05,5.27,156.19,87.01,236.08,36.8,32.44,130.3,126.92,45.01,369.13,153.21-88.27,413.72-236.34,281.05-439.15C3628.94,1011.01,3421.62,1135.26,3335.47,1027.79Zm98.01,131.04c66.73,2.05,216.68,44.13,249.94,124.48,19.16,46.28-.4,105.27-96.91,176.63C3631.31,1362.46,3481.16,1221.92,3433.48,1158.83ZM2687,1710c0.17,36.09-34.76-204.03-127-304,42.7-44.53,228.96-157.05,242-526,42.33,81.891,140.37,209.58,197,254,32.57-31.94,178.96-198.678,202-256,0.02,75.523-23.35,282.33,242,528-31.73,40.65-117.49,157.37-129,309-12.56-129.75-78.28-470.7-195-636-39.32,49.14-108.82,136.06-118,204-19.64-60.72-59.55-135.03-117-203C2858.97,1111.4,2685.95,1489.29,2687,1710Zm1160,19c8.96-91.24,2.39-195.06-28-285,74.47-122.32,42.77-494.253-377-417,59.8-38.4,99.01-64.371,138-168,32.82,27.443,141.35,150.64,483,37-9.16,39.016-20.81,65.338,12,142-99.8-55.181-492-52.634-35,302C3956.53,1391.3,3903.38,1446.97,3847,1729Zm213,132c9.68-46.56,181.4-248.92,253-240-60.24-61.25-204.07-261.93-232-539-52.6-16.46-91-22-91-22S4178.74,1359.07,4060,1861Zm381.69-113.66c2.98-135.85-159.54-217.35-214.75-395.41-23.49-75.76-35.86-139.46-55.3-223.05,16.16-33.66,69.52-37.7,46.08-117.97C4301.77,1091.47,4768.8,1227.85,4441.69,1747.34Zm19.36-187.1c-19.46-46.75-101.89-95.91-145.63-169.59-62.22-104.84-45.1-275.78-39.63-248.86C4302.96,1158.96,4569.1,1253.01,4461.05,1560.24ZM3363,2014c118.02-19.53,492.12-105.25,608,160,73.93-47.66,419.26-252.88,402-75,85.99-94.16,307.46-288.14,515-339-82.84-56.24-232.5-230.97-255-560,156.03,124.73,368.1,298.24,368,526,73.03-18.47,377-72.04,517-63-136.39-37.19-496.96-117.13-642-482,54.99,29.75,102.05,45.86,121,62-98.27-118.27-212.2-262.946-220-413-46.52,49.946-131.41,102.731-171,124,41.07,12.667,215.84,92.82,293,385-64.8-30.4-329.71-181.95-329-368-48.76,16.1-130.66,46.08-272,37,369.31,69.97,338.61,531.3,315,742-229.18,199.72-528.95,315.31-953,20C3566.23,1941.4,3394.19,2000.02,3363,2014Z" transform="translate(-484 -830)"/>
</svg>
